{
	"asset":{
		"generator":"Khronos glTF Blender I/O v3.6.27",
		"version":"2.0"
	},
	"scene":0,
	"scenes":[
		{
			"name":"Scene",
			"nodes":[
				0,
				2,
				3
			]
		}
	],
	"nodes":[
		{
			"camera":0,
			"name":"Cam_Anim_Baked",
			"rotation":[
				-0.12413784116506577,
				-0.3063732981681824,
				-0.04033483937382698,
				0.9429200887680054
			],
			"scale":[
				0.9613876342773438,
				0.9613876342773438,
				0.961387574672699
			],
			"translation":[
				-8.85766887664795,
				3.6918725967407227,
				12.191536903381348
			]
		},
		{
			"mesh":0,
			"name":"Chest_Cap",
			"translation":[
				0,
				0.6507498621940613,
				-0.3847500681877136
			]
		},
		{
			"children":[
				1
			],
			"mesh":1,
			"name":"Chest_Bottom"
		},
		{
			"camera":1,
			"name":"Cam_Anim",
			"rotation":[
				-0.12413778156042099,
				-0.3063732981681824,
				-0.040334802120923996,
				0.9429200887680054
			],
			"scale":[
				0.9613876342773438,
				0.961387574672699,
				0.9613875150680542
			],
			"translation":[
				-8.85766887664795,
				3.6918725967407227,
				12.191536903381348
			]
		}
	],
	"cameras":[
		{
			"name":"Cam_Anim_Baked",
			"perspective":{
				"aspectRatio":1.7777777777777777,
				"yfov":0.25178630405316277,
				"zfar":1000,
				"znear":0.10000000149011612
			},
			"type":"perspective"
		},
		{
			"name":"Camera.002",
			"perspective":{
				"aspectRatio":1.7777777777777777,
				"yfov":0.25178630405316277,
				"zfar":1000,
				"znear":0.10000000149011612
			},
			"type":"perspective"
		}
	],
	"animations":[
		{
			"channels":[
				{
					"sampler":0,
					"target":{
						"node":3,
						"path":"translation"
					}
				}
			],
			"name":"Cam_AnimAction",
			"samplers":[
				{
					"input":8,
					"interpolation":"LINEAR",
					"output":9
				}
			]
		},
		{
			"channels":[
				{
					"sampler":0,
					"target":{
						"node":0,
						"path":"translation"
					}
				},
				{
					"sampler":1,
					"target":{
						"node":0,
						"path":"rotation"
					}
				},
				{
					"sampler":2,
					"target":{
						"node":0,
						"path":"scale"
					}
				}
			],
			"name":"Zoom",
			"samplers":[
				{
					"input":8,
					"interpolation":"LINEAR",
					"output":10
				},
				{
					"input":11,
					"interpolation":"LINEAR",
					"output":12
				},
				{
					"input":11,
					"interpolation":"STEP",
					"output":13
				}
			]
		},
		{
			"channels":[
				{
					"sampler":0,
					"target":{
						"node":2,
						"path":"translation"
					}
				},
				{
					"sampler":1,
					"target":{
						"node":2,
						"path":"rotation"
					}
				}
			],
			"name":"Shake",
			"samplers":[
				{
					"input":14,
					"interpolation":"LINEAR",
					"output":15
				},
				{
					"input":14,
					"interpolation":"LINEAR",
					"output":16
				}
			]
		},
		{
			"channels":[
				{
					"sampler":0,
					"target":{
						"node":1,
						"path":"translation"
					}
				},
				{
					"sampler":1,
					"target":{
						"node":1,
						"path":"rotation"
					}
				}
			],
			"name":"Open",
			"samplers":[
				{
					"input":17,
					"interpolation":"LINEAR",
					"output":18
				},
				{
					"input":17,
					"interpolation":"LINEAR",
					"output":19
				}
			]
		}
	],
	"meshes":[
		{
			"name":"Chest_Cap",
			"primitives":[
				{
					"attributes":{
						"POSITION":0,
						"NORMAL":1,
						"TEXCOORD_0":2
					},
					"indices":3
				}
			]
		},
		{
			"name":"Chest_Bottom",
			"primitives":[
				{
					"attributes":{
						"POSITION":4,
						"NORMAL":5,
						"TEXCOORD_0":6
					},
					"indices":7
				}
			]
		}
	],
	"accessors":[
		{
			"bufferView":0,
			"componentType":5126,
			"count":1931,
			"max":[
				0.46659353375434875,
				0.13775479793548584,
				0.7990934252738953
			],
			"min":[
				-0.46659353375434875,
				-0.185249924659729,
				-0.029593706130981445
			],
			"type":"VEC3"
		},
		{
			"bufferView":1,
			"componentType":5126,
			"count":1931,
			"type":"VEC3"
		},
		{
			"bufferView":2,
			"componentType":5126,
			"count":1931,
			"type":"VEC2"
		},
		{
			"bufferView":3,
			"componentType":5123,
			"count":7812,
			"type":"SCALAR"
		},
		{
			"bufferView":4,
			"componentType":5126,
			"count":993,
			"max":[
				0.4318484663963318,
				0.6113194227218628,
				0.38072603940963745
			],
			"min":[
				-0.4318484663963318,
				-4.246831153409403e-08,
				-0.38072603940963745
			],
			"type":"VEC3"
		},
		{
			"bufferView":5,
			"componentType":5126,
			"count":993,
			"type":"VEC3"
		},
		{
			"bufferView":6,
			"componentType":5126,
			"count":993,
			"type":"VEC2"
		},
		{
			"bufferView":7,
			"componentType":5123,
			"count":2160,
			"type":"SCALAR"
		},
		{
			"bufferView":8,
			"componentType":5126,
			"count":26,
			"max":[
				1.6
			],
			"min":[
				0.6
			],
			"type":"SCALAR"
		},
		{
			"bufferView":9,
			"componentType":5126,
			"count":26,
			"type":"VEC3"
		},
		{
			"bufferView":10,
			"componentType":5126,
			"count":26,
			"type":"VEC3"
		},
		{
			"bufferView":11,
			"componentType":5126,
			"count":2,
			"max":[
				1.6
			],
			"min":[
				0.6
			],
			"type":"SCALAR"
		},
		{
			"bufferView":12,
			"componentType":5126,
			"count":2,
			"type":"VEC4"
		},
		{
			"bufferView":13,
			"componentType":5126,
			"count":2,
			"type":"VEC3"
		},
		{
			"bufferView":14,
			"componentType":5126,
			"count":33,
			"max":[
				3
			],
			"min":[
				1.72
			],
			"type":"SCALAR"
		},
		{
			"bufferView":15,
			"componentType":5126,
			"count":33,
			"type":"VEC3"
		},
		{
			"bufferView":16,
			"componentType":5126,
			"count":33,
			"type":"VEC4"
		},
		{
			"bufferView":17,
			"componentType":5126,
			"count":16,
			"max":[
				3
			],
			"min":[
				2.4
			],
			"type":"SCALAR"
		},
		{
			"bufferView":18,
			"componentType":5126,
			"count":16,
			"type":"VEC3"
		},
		{
			"bufferView":19,
			"componentType":5126,
			"count":16,
			"type":"VEC4"
		}
	],
	"bufferViews":[
		{
			"buffer":0,
			"byteLength":23172,
			"byteOffset":0,
			"target":34962
		},
		{
			"buffer":0,
			"byteLength":23172,
			"byteOffset":23172,
			"target":34962
		},
		{
			"buffer":0,
			"byteLength":15448,
			"byteOffset":46344,
			"target":34962
		},
		{
			"buffer":0,
			"byteLength":15624,
			"byteOffset":61792,
			"target":34963
		},
		{
			"buffer":0,
			"byteLength":11916,
			"byteOffset":77416,
			"target":34962
		},
		{
			"buffer":0,
			"byteLength":11916,
			"byteOffset":89332,
			"target":34962
		},
		{
			"buffer":0,
			"byteLength":7944,
			"byteOffset":101248,
			"target":34962
		},
		{
			"buffer":0,
			"byteLength":4320,
			"byteOffset":109192,
			"target":34963
		},
		{
			"buffer":0,
			"byteLength":104,
			"byteOffset":113512
		},
		{
			"buffer":0,
			"byteLength":312,
			"byteOffset":113616
		},
		{
			"buffer":0,
			"byteLength":312,
			"byteOffset":113928
		},
		{
			"buffer":0,
			"byteLength":8,
			"byteOffset":114240
		},
		{
			"buffer":0,
			"byteLength":32,
			"byteOffset":114248
		},
		{
			"buffer":0,
			"byteLength":24,
			"byteOffset":114280
		},
		{
			"buffer":0,
			"byteLength":132,
			"byteOffset":114304
		},
		{
			"buffer":0,
			"byteLength":396,
			"byteOffset":114436
		},
		{
			"buffer":0,
			"byteLength":528,
			"byteOffset":114832
		},
		{
			"buffer":0,
			"byteLength":64,
			"byteOffset":115360
		},
		{
			"buffer":0,
			"byteLength":192,
			"byteOffset":115424
		},
		{
			"buffer":0,
			"byteLength":256,
			"byteOffset":115616
		}
	],
	"buffers":[
		{
			"byteLength":115872,
			"uri":"data:application/octet-stream;base64,"
		}
	]
}
