{
	"asset":{
		"generator":"Khronos glTF Blender I/O v3.6.27",
		"version":"2.0"
	},
	"scene":0,
	"scenes":[
		{
			"name":"Scene",
			"nodes":[
				0,
				2,
				3
			]
		}
	],
	"nodes":[
		{
			"camera":0,
			"name":"Cam_Anim_Baked",
			"rotation":[
				-0.12413784116506577,
				-0.3063732981681824,
				-0.04033483937382698,
				0.9429200887680054
			],
			"scale":[
				0.9613876342773438,
				0.9613876342773438,
				0.961387574672699
			],
			"translation":[
				-8.85766887664795,
				3.6918725967407227,
				12.191536903381348
			]
		},
		{
			"mesh":0,
			"name":"Chest_Cap",
			"translation":[
				0,
				0.650749921798706,
				-0.3847499489784241
			]
		},
		{
			"children":[
				1
			],
			"mesh":1,
			"name":"Chest_Bottom"
		},
		{
			"camera":1,
			"name":"Cam_Anim",
			"rotation":[
				-0.12413778156042099,
				-0.3063732981681824,
				-0.040334802120923996,
				0.9429200887680054
			],
			"scale":[
				0.9613876342773438,
				0.961387574672699,
				0.9613875150680542
			],
			"translation":[
				-8.85766887664795,
				3.6918725967407227,
				12.191536903381348
			]
		}
	],
	"cameras":[
		{
			"name":"Cam_Anim_Baked",
			"perspective":{
				"aspectRatio":1.7777777777777777,
				"yfov":0.25178630405316277,
				"zfar":1000,
				"znear":0.10000000149011612
			},
			"type":"perspective"
		},
		{
			"name":"Camera.002",
			"perspective":{
				"aspectRatio":1.7777777777777777,
				"yfov":0.25178630405316277,
				"zfar":1000,
				"znear":0.10000000149011612
			},
			"type":"perspective"
		}
	],
	"animations":[
		{
			"channels":[
				{
					"sampler":0,
					"target":{
						"node":3,
						"path":"translation"
					}
				}
			],
			"name":"Cam_AnimAction",
			"samplers":[
				{
					"input":8,
					"interpolation":"LINEAR",
					"output":9
				}
			]
		},
		{
			"channels":[
				{
					"sampler":0,
					"target":{
						"node":0,
						"path":"translation"
					}
				},
				{
					"sampler":1,
					"target":{
						"node":0,
						"path":"rotation"
					}
				},
				{
					"sampler":2,
					"target":{
						"node":0,
						"path":"scale"
					}
				}
			],
			"name":"Zoom",
			"samplers":[
				{
					"input":8,
					"interpolation":"LINEAR",
					"output":10
				},
				{
					"input":11,
					"interpolation":"LINEAR",
					"output":12
				},
				{
					"input":11,
					"interpolation":"STEP",
					"output":13
				}
			]
		},
		{
			"channels":[
				{
					"sampler":0,
					"target":{
						"node":2,
						"path":"translation"
					}
				},
				{
					"sampler":1,
					"target":{
						"node":2,
						"path":"rotation"
					}
				}
			],
			"name":"Shake",
			"samplers":[
				{
					"input":14,
					"interpolation":"LINEAR",
					"output":15
				},
				{
					"input":14,
					"interpolation":"LINEAR",
					"output":16
				}
			]
		},
		{
			"channels":[
				{
					"sampler":0,
					"target":{
						"node":1,
						"path":"translation"
					}
				},
				{
					"sampler":1,
					"target":{
						"node":1,
						"path":"rotation"
					}
				}
			],
			"name":"Open",
			"samplers":[
				{
					"input":17,
					"interpolation":"LINEAR",
					"output":18
				},
				{
					"input":17,
					"interpolation":"LINEAR",
					"output":19
				}
			]
		}
	],
	"materials":[
		{
			"doubleSided":true,
			"emissiveFactor":[
				1,
				1,
				1
			],
			"emissiveTexture":{
				"index":0
			},
			"name":"Chest",
			"normalTexture":{
				"index":1
			},
			"pbrMetallicRoughness":{
				"baseColorFactor":[
					0.800000011920929,
					0.800000011920929,
					0.800000011920929,
					1
				],
				"metallicRoughnessTexture":{
					"index":2
				}
			}
		}
	],
	"meshes":[
		{
			"name":"Chest_Diamonds_Cap",
			"primitives":[
				{
					"attributes":{
						"POSITION":0,
						"NORMAL":1,
						"TEXCOORD_0":2
					},
					"indices":3,
					"material":0
				}
			]
		},
		{
			"name":"Chest_Bottom",
			"primitives":[
				{
					"attributes":{
						"POSITION":4,
						"NORMAL":5,
						"TEXCOORD_0":6
					},
					"indices":7,
					"material":0
				}
			]
		}
	],
	"textures":[
		{
			"sampler":0,
			"source":0
		},
		{
			"sampler":0,
			"source":1
		},
		{
			"sampler":0,
			"source":2
		}
	],
	"images":[
		{
			"bufferView":4,
			"mimeType":"image/jpeg",
			"name":"Chest_Emissive_sRGB"
		},
		{
			"bufferView":5,
			"mimeType":"image/png",
			"name":"Chest_Normal_OpenGL_Raw"
		},
		{
			"bufferView":6,
			"mimeType":"image/png",
			"name":"Chest_Metallic_Raw-Chest_Roughness_Raw"
		}
	],
	"accessors":[
		{
			"bufferView":0,
			"componentType":5126,
			"count":957,
			"max":[
				0.4986809492111206,
				0.13375473022460938,
				0.8311808109283447
			],
			"min":[
				-0.498680979013443,
				-0.3142610788345337,
				-0.061681121587753296
			],
			"type":"VEC3"
		},
		{
			"bufferView":1,
			"componentType":5126,
			"count":957,
			"type":"VEC3"
		},
		{
			"bufferView":2,
			"componentType":5126,
			"count":957,
			"type":"VEC2"
		},
		{
			"bufferView":3,
			"componentType":5123,
			"count":1704,
			"type":"SCALAR"
		},
		{
			"bufferView":7,
			"componentType":5126,
			"count":1353,
			"max":[
				0.4310970604419708,
				0.6113194227218628,
				0.37926504015922546
			],
			"min":[
				-0.4310970604419708,
				-5.960464477539063e-08,
				-0.37926504015922546
			],
			"type":"VEC3"
		},
		{
			"bufferView":8,
			"componentType":5126,
			"count":1353,
			"type":"VEC3"
		},
		{
			"bufferView":9,
			"componentType":5126,
			"count":1353,
			"type":"VEC2"
		},
		{
			"bufferView":10,
			"componentType":5123,
			"count":2688,
			"type":"SCALAR"
		},
		{
			"bufferView":11,
			"componentType":5126,
			"count":26,
			"max":[
				1.6
			],
			"min":[
				0.6
			],
			"type":"SCALAR"
		},
		{
			"bufferView":12,
			"componentType":5126,
			"count":26,
			"type":"VEC3"
		},
		{
			"bufferView":13,
			"componentType":5126,
			"count":26,
			"type":"VEC3"
		},
		{
			"bufferView":14,
			"componentType":5126,
			"count":2,
			"max":[
				1.6
			],
			"min":[
				0.6
			],
			"type":"SCALAR"
		},
		{
			"bufferView":15,
			"componentType":5126,
			"count":2,
			"type":"VEC4"
		},
		{
			"bufferView":16,
			"componentType":5126,
			"count":2,
			"type":"VEC3"
		},
		{
			"bufferView":17,
			"componentType":5126,
			"count":33,
			"max":[
				3
			],
			"min":[
				1.72
			],
			"type":"SCALAR"
		},
		{
			"bufferView":18,
			"componentType":5126,
			"count":33,
			"type":"VEC3"
		},
		{
			"bufferView":19,
			"componentType":5126,
			"count":33,
			"type":"VEC4"
		},
		{
			"bufferView":20,
			"componentType":5126,
			"count":16,
			"max":[
				3
			],
			"min":[
				2.4
			],
			"type":"SCALAR"
		},
		{
			"bufferView":21,
			"componentType":5126,
			"count":16,
			"type":"VEC3"
		},
		{
			"bufferView":22,
			"componentType":5126,
			"count":16,
			"type":"VEC4"
		}
	],
	"bufferViews":[
		{
			"buffer":0,
			"byteLength":11484,
			"byteOffset":0,
			"target":34962
		},
		{
			"buffer":0,
			"byteLength":11484,
			"byteOffset":11484,
			"target":34962
		},
		{
			"buffer":0,
			"byteLength":7656,
			"byteOffset":22968,
			"target":34962
		},
		{
			"buffer":0,
			"byteLength":3408,
			"byteOffset":30624,
			"target":34963
		},
		{
			"buffer":0,
			"byteLength":84691,
			"byteOffset":34032
		},
		{
			"buffer":0,
			"byteLength":1013335,
			"byteOffset":118724
		},
		{
			"buffer":0,
			"byteLength":1562973,
			"byteOffset":1132060
		},
		{
			"buffer":0,
			"byteLength":16236,
			"byteOffset":2695036,
			"target":34962
		},
		{
			"buffer":0,
			"byteLength":16236,
			"byteOffset":2711272,
			"target":34962
		},
		{
			"buffer":0,
			"byteLength":10824,
			"byteOffset":2727508,
			"target":34962
		},
		{
			"buffer":0,
			"byteLength":5376,
			"byteOffset":2738332,
			"target":34963
		},
		{
			"buffer":0,
			"byteLength":104,
			"byteOffset":2743708
		},
		{
			"buffer":0,
			"byteLength":312,
			"byteOffset":2743812
		},
		{
			"buffer":0,
			"byteLength":312,
			"byteOffset":2744124
		},
		{
			"buffer":0,
			"byteLength":8,
			"byteOffset":2744436
		},
		{
			"buffer":0,
			"byteLength":32,
			"byteOffset":2744444
		},
		{
			"buffer":0,
			"byteLength":24,
			"byteOffset":2744476
		},
		{
			"buffer":0,
			"byteLength":132,
			"byteOffset":2744500
		},
		{
			"buffer":0,
			"byteLength":396,
			"byteOffset":2744632
		},
		{
			"buffer":0,
			"byteLength":528,
			"byteOffset":2745028
		},
		{
			"buffer":0,
			"byteLength":64,
			"byteOffset":2745556
		},
		{
			"buffer":0,
			"byteLength":192,
			"byteOffset":2745620
		},
		{
			"buffer":0,
			"byteLength":256,
			"byteOffset":2745812
		}
	],
	"samplers":[
		{
			"magFilter":9729,
			"minFilter":9987
		}
	],
	"buffers":[
		{
			"byteLength":2746068,
			"uri":"data:application/octet-stream;base64,"
		}
	]
}
