{
	"asset":{
		"generator":"Khronos glTF Blender I/O v3.6.27",
		"version":"2.0"
	},
	"extensionsUsed":[
		"KHR_materials_emissive_strength"
	],
	"scene":0,
	"scenes":[
		{
			"name":"Scene",
			"nodes":[
				0
			]
		}
	],
	"nodes":[
		{
			"mesh":0,
			"name":"Chest_low"
		}
	],
	"materials":[
		{
			"doubleSided":true,
			"emissiveFactor":[
				1,
				1,
				1
			],
			"emissiveTexture":{
				"index":0
			},
			"extensions":{
				"KHR_materials_emissive_strength":{
					"emissiveStrength":5
				}
			},
			"name":"Chest",
			"normalTexture":{
				"index":1
			},
			"pbrMetallicRoughness":{
				"baseColorFactor":[
					0.800000011920929,
					0.800000011920929,
					0.800000011920929,
					1
				],
				"metallicRoughnessTexture":{
					"index":2
				}
			}
		}
	],
	"meshes":[
		{
			"name":"Botton_Borders_LP.019",
			"primitives":[
				{
					"attributes":{
						"POSITION":0,
						"NORMAL":1,
						"TEXCOORD_0":2
					},
					"indices":3,
					"material":0
				}
			]
		}
	],
	"textures":[
		{
			"sampler":0,
			"source":0
		},
		{
			"sampler":0,
			"source":1
		},
		{
			"sampler":0,
			"source":2
		}
	],
	"images":[
		{
			"bufferView":4,
			"mimeType":"image/jpeg",
			"name":"Chest_Emissive_sRGB"
		},
		{
			"bufferView":5,
			"mimeType":"image/png",
			"name":"Chest_Normal_OpenGL_Raw"
		},
		{
			"bufferView":6,
			"mimeType":"image/png",
			"name":"Chest_Metallic_Raw-Chest_Roughness_Raw"
		}
	],
	"accessors":[
		{
			"bufferView":0,
			"componentType":5126,
			"count":2342,
			"max":[
				0.4986809492111206,
				0.7845046520233154,
				0.44643089175224304
			],
			"min":[
				-0.498680979013443,
				-5.960464477539063e-08,
				-0.44643107056617737
			],
			"type":"VEC3"
		},
		{
			"bufferView":1,
			"componentType":5126,
			"count":2342,
			"type":"VEC3"
		},
		{
			"bufferView":2,
			"componentType":5126,
			"count":2342,
			"type":"VEC2"
		},
		{
			"bufferView":3,
			"componentType":5123,
			"count":4392,
			"type":"SCALAR"
		}
	],
	"bufferViews":[
		{
			"buffer":0,
			"byteLength":28104,
			"byteOffset":0,
			"target":34962
		},
		{
			"buffer":0,
			"byteLength":28104,
			"byteOffset":28104,
			"target":34962
		},
		{
			"buffer":0,
			"byteLength":18736,
			"byteOffset":56208,
			"target":34962
		},
		{
			"buffer":0,
			"byteLength":8784,
			"byteOffset":74944,
			"target":34963
		},
		{
			"buffer":0,
			"byteLength":84691,
			"byteOffset":83728
		},
		{
			"buffer":0,
			"byteLength":1013335,
			"byteOffset":168420
		},
		{
			"buffer":0,
			"byteLength":1562973,
			"byteOffset":1181756
		}
	],
	"samplers":[
		{
			"magFilter":9729,
			"minFilter":9987
		}
	],
	"buffers":[
		{
			"byteLength":2744732,
			"uri":"data:application/octet-stream;base64,"
		}
	]
}
